<?xml version="1.0" encoding="UTF-8" standalone="no"?>
<!-- Created with Inkscape (http://www.inkscape.org/) -->

<svg
   width="16"
   height="16"
   viewBox="0 0 4.2333332 4.2333333"
   version="1.1"
   id="svg5"
   xml:space="preserve"
   inkscape:version="1.2.2 (732a01da63, 2022-12-09)"
   sodipodi:docname="ProgressDisk.svg"
   xmlns:inkscape="http://www.inkscape.org/namespaces/inkscape"
   xmlns:sodipodi="http://sodipodi.sourceforge.net/DTD/sodipodi-0.dtd"
   xmlns="http://www.w3.org/2000/svg"
   xmlns:svg="http://www.w3.org/2000/svg"><sodipodi:namedview
     id="namedview7"
     pagecolor="#ffffff"
     bordercolor="#000000"
     borderopacity="0.25"
     inkscape:showpageshadow="2"
     inkscape:pageopacity="0.0"
     inkscape:pagecheckerboard="0"
     inkscape:deskcolor="#d1d1d1"
     inkscape:document-units="mm"
     showgrid="true"
     inkscape:zoom="16.710735"
     inkscape:cx="6.612516"
     inkscape:cy="15.020285"
     inkscape:window-width="1920"
     inkscape:window-height="1009"
     inkscape:window-x="-8"
     inkscape:window-y="-8"
     inkscape:window-maximized="1"
     inkscape:current-layer="layer1"><inkscape:grid
       type="xygrid"
       id="grid182"
       spacingx="0.13229166"
       spacingy="0.13229166" /></sodipodi:namedview><defs
     id="defs2" /><g
     inkscape:label="Layer 1"
     inkscape:groupmode="layer"
     id="layer1"><path
       id="circle2239"
       style="display:inline;fill:#8eef97;fill-opacity:1;stroke:none;stroke-width:0.327515;stroke-linejoin:round;stroke-dasharray:none;stroke-opacity:1"
       inkscape:label="path368"
       d="M 2.1166667 0.52916667 A 1.5875 1.5875 0 0 0 0.52916667 2.1166667 A 1.5875 1.5875 0 0 0 2.1166667 3.7041667 A 1.5875 1.5875 0 0 0 3.7041667 2.1166667 A 1.5875 1.5875 0 0 0 2.1166667 0.52916667 z M 2.1166667 0.92604167 A 1.190625 1.190625 0 0 1 3.3072917 2.1166667 A 1.190625 1.190625 0 0 1 2.1166667 3.3072917 A 1.190625 1.190625 0 0 1 0.92604167 2.1166667 A 1.190625 1.190625 0 0 1 2.1166667 0.92604167 z " /><path
       style="fill:#8eef97;fill-opacity:1;stroke:none;stroke-width:0.264583;stroke-linejoin:round;stroke-dasharray:none;stroke-opacity:1"
       d="m 2.1166666,0.79374996 -10e-8,1.32291654 1.0583333,0.9260417 c 0.6614583,-1.0583333 0,-2.24895824 -1.0583332,-2.24895824 z"
       id="path2454"
       sodipodi:nodetypes="cccc" /></g></svg>
