<?xml version="1.0" encoding="UTF-8" standalone="no"?>
<svg
   height="16"
   viewBox="0 0 16 16"
   width="16"
   version="1.1"
   id="svg8"
   sodipodi:docname="Timestamp.svg"
   inkscape:version="1.2.2 (732a01da63, 2022-12-09)"
   xmlns:inkscape="http://www.inkscape.org/namespaces/inkscape"
   xmlns:sodipodi="http://sodipodi.sourceforge.net/DTD/sodipodi-0.dtd"
   xmlns="http://www.w3.org/2000/svg"
   xmlns:svg="http://www.w3.org/2000/svg">
  <defs
     id="defs12" />
  <sodipodi:namedview
     id="namedview10"
     pagecolor="#ffffff"
     bordercolor="#000000"
     borderopacity="0.25"
     inkscape:showpageshadow="2"
     inkscape:pageopacity="0.0"
     inkscape:pagecheckerboard="0"
     inkscape:deskcolor="#d1d1d1"
     showgrid="true"
     inkscape:zoom="73.27394"
     inkscape:cx="8.3863376"
     inkscape:cy="8.5569303"
     inkscape:window-width="1920"
     inkscape:window-height="1009"
     inkscape:window-x="1912"
     inkscape:window-y="-8"
     inkscape:window-maximized="1"
     inkscape:current-layer="g6">
    <inkscape:grid
       type="xygrid"
       id="grid532"
       spacingx="0.5"
       spacingy="0.5" />
  </sodipodi:namedview>
  <g
     fill="#e0e0e0"
     id="g6"
     style="display:inline">
    <path
       id="path3751"
       style="display:inline;stroke-width:0.928571;stroke-linejoin:round"
       d="M 8 2 A 6.5 6.5 0 0 0 1.5 8.5 A 6.5 6.5 0 0 0 8 15 A 6.5 6.5 0 0 0 14.5 8.5 A 6.5 6.5 0 0 0 8 2 z M 8 3.5 A 5 5 0 0 1 13 8.5 A 5 5 0 0 1 8 13.5 A 5 5 0 0 1 3 8.5 A 5 5 0 0 1 8 3.5 z " />
    <rect
       style="fill-opacity:1;stroke-width:1.22474;stroke-linejoin:round"
       id="rect8311"
       width="6"
       height="2"
       x="5"
       y="1" />
    <path
       style="display:none;fill:none;fill-opacity:1;stroke:#ffffff;stroke-width:1.5;stroke-linecap:square;stroke-linejoin:miter;stroke-dasharray:none;stroke-opacity:1"
       d="m 8,4.5 v 4 l 3,3"
       id="path9241"
       sodipodi:nodetypes="ccc" />
    <path
       style="color:#000000;stroke-linecap:round;-inkscape-stroke:none;stroke:none"
       d="M 8,4.25 A 0.75,0.75 0 0 0 7.25,5 V 8.8105469 L 9.96875,11.53125 a 0.75,0.75 0 0 0 1.0625,0 0.75,0.75 0 0 0 0,-1.0625 L 8.75,8.1894531 V 5 A 0.75,0.75 0 0 0 8,4.25 Z"
       id="path18127" />
  </g>
</svg>
